IKResults
version=1
nRows=4
nColumns=63
inDegrees=yes

Units are S.I. units (second, meters, Newtons, ...)
If the header above contains a line with 'inDegrees', this indicates whether rotational values are in degrees (yes) or radians (no).

endheader
time	pelvis_tilt	pelvis_list	pelvis_rotation	pelvis_tx	pelvis_ty	pelvis_tz	hip_flexion_r	hip_adduction_r	hip_rotation_r	knee_angle_r	knee_angle_r_beta	ankle_angle_r	subtalar_angle_r	mtp_angle_r	hip_flexion_l	hip_adduction_l	hip_rotation_l	knee_angle_l	knee_angle_l_beta	ankle_angle_l	subtalar_angle_l	mtp_angle_l	L5_S1_Flex_Ext	L5_S1_Lat_Bending	L5_S1_axial_rotation	L4_L5_Flex_Ext	L4_L5_Lat_Bending	L4_L5_axial_rotation	L3_L4_Flex_Ext	L3_L4_Lat_Bending	L3_L4_axial_rotation	L2_L3_Flex_Ext	L2_L3_Lat_Bending	L2_L3_axial_rotation	L1_L2_Flex_Ext	L1_L2_Lat_Bending	L1_L2_axial_rotation	L1_T12_Flex_Ext	L1_T12_Lat_Bending	L1_T12_axial_rotation	Abs_r3	Abs_r2	Abs_r1	Abs_t1	Abs_t2	neck_flexion	neck_bending	neck_rotation	arm_flex_r	arm_add_r	arm_rot_r	elbow_flex_r	pro_sup_r	wrist_flex_r	wrist_dev_r	arm_flex_l	arm_add_l	arm_rot_l	elbow_flex_l	pro_sup_l	wrist_flex_l	wrist_dev_l
      2.03333333	    -34.25417041	     -1.35306319	      8.43867076	     -1.71115573	      0.91414186	     -0.32693680	     26.45089073	     -8.43972050	    -13.93997852	     29.76916508	      0.51956995	     15.87423153	    -10.94935862	      0.00000000	     32.61957255	      4.14849845	      2.94690276	      1.63591832	      0.02855216	      2.48669146	    -18.82479013	      0.00000000	      6.16187052	     -0.61823733	     -0.46917030	     11.44320974	     -0.82225565	     -0.49849345	     10.12333707	     -1.50318224	     -0.49849345	      7.04240181	     -1.50318224	     -0.41052402	      5.72191296	     -1.26070956	     -0.38120087	      3.52089281	     -0.95764962	     -0.35187773	     44.01362492	     -6.99362430	     -2.60938447	      0.00000000	      0.00000000	      0.18797750	      1.43298645	     -9.86889050	    -16.22449790	     -6.13228070	     -7.01788715	     42.49067413	     89.99559364	      0.00000000	      0.00000000	    -28.40246754	    -13.96271703	      3.24613198	     27.94759592	     89.99559364	      0.00000000	      0.00000000
      2.06666667	    -34.41581480	     -2.34684709	      7.43388040	     -1.69308787	      0.91548966	     -0.33186479	     29.04682775	     -7.37373337	    -12.45888960	     31.34647065	      0.54709912	     15.92790158	    -12.22979832	      0.00000000	     31.88634143	      3.03441532	      2.44179761	      1.96363361	      0.03427187	      3.34128135	    -18.77024524	      0.00000000	      6.27321279	     -0.44319782	     -0.56726713	     11.64998348	     -0.58945311	     -0.60272132	     10.30626130	     -1.07759119	     -0.60272132	      7.16965490	     -1.07759119	     -0.49635874	      5.82530540	     -0.90376900	     -0.46090454	      3.58451379	     -0.68651343	     -0.42545034	     44.80893166	     -5.01354243	     -3.15496958	      0.00000000	      0.00000000	     -0.51415087	      0.79727933	     -8.99564515	    -17.90068814	     -7.42406026	     -5.64900130	     42.45902399	     89.99559364	      0.00000000	      0.00000000	    -27.75453457	    -13.06675571	      1.27558810	     29.01699550	     89.99559364	      0.00000000	      0.00000000
      2.10000000	    -34.35049502	     -3.29107097	      6.40246594	     -1.67572454	      0.91673438	     -0.33613469	     31.59745378	     -6.39148573	    -11.63419974	     32.76133589	      0.57179318	     16.29279137	    -12.57963916	      0.00000000	     31.06245923	      1.89241701	      1.84497761	      2.55033859	      0.04451181	      4.44574190	    -18.71132448	      0.00000000	      6.32024893	     -0.25809781	     -0.65735345	     11.73733429	     -0.34327008	     -0.69843804	     10.38353697	     -0.62753901	     -0.69843804	      7.22341250	     -0.62753901	     -0.57518427	      5.86898316	     -0.52631305	     -0.53409968	      3.61139024	     -0.39979350	     -0.49301509	     45.14490609	     -2.91965402	     -3.65600267	      0.00000000	      0.00000000	     -0.94671263	     -0.14864401	     -7.94986353	    -19.51876139	     -8.60855787	     -4.94447371	     42.55329193	     89.99559364	      0.00000000	      0.00000000	    -26.62849403	    -12.26344367	      0.36662993	     29.94131031	     89.99559364	      0.00000000	      0.00000000
      2.13333333	    -34.58105308	     -4.18974565	      5.14440805	     -1.65936910	      0.91739832	     -0.33907573	     34.62998543	     -5.19935729	    -10.62364079	     33.79575810	      0.58984725	     16.34603335	    -13.28194370	      0.00000000	     30.67254045	      0.65375932	      0.89231208	      3.35597052	      0.05857274	      5.58407188	    -18.58733079	      0.00000000	      6.39018180	     -0.06977598	     -0.71549808	     11.86720661	     -0.09280206	     -0.76021671	     10.49842967	     -0.16965333	     -0.76021671	      7.30333877	     -0.16965333	     -0.62606082	      5.93392282	     -0.14228719	     -0.58134219	      3.65134988	     -0.10808300	     -0.53662356	     45.64442955	     -0.78931989	     -3.97938565	      0.00000000	      0.00000000	     -1.14636105	     -0.95223149	     -7.08573559	    -21.09953624	     -9.86738038	     -3.86706389	     42.64867112	     89.99559364	      0.00000000	      0.00000000	    -25.44036055	    -11.38447110	     -0.97524910	     31.08242465	     89.99559364	      0.00000000	      0.00000000
